<mxfile host="app.diagrams.net" modified="2024-04-18T09:02:04.273Z" agent="Mozilla/5.0 (Windows NT 10.0; Win64; x64) AppleWebKit/537.36 (KHTML, like Gecko) Chrome/123.0.0.0 Safari/537.36" etag="-Ph0iup5pBeEJBv6ZEjf" version="22.1.17" type="device">
  <diagram name="Pagina-1" id="nATbCSx4QJsKzGruSLtj">
    <mxGraphModel dx="1115" dy="670" grid="0" gridSize="10" guides="1" tooltips="1" connect="1" arrows="1" fold="1" page="1" pageScale="1" pageWidth="827" pageHeight="1169" math="0" shadow="0">
      <root>
        <mxCell id="0" />
        <mxCell id="1" parent="0" />
        <mxCell id="trE5b1TSk-sXv22cwQkJ-8" value="" style="rounded=0;whiteSpace=wrap;html=1;" vertex="1" parent="1">
          <mxGeometry x="320" y="270" width="160" height="280" as="geometry" />
        </mxCell>
        <mxCell id="trE5b1TSk-sXv22cwQkJ-6" value="" style="rounded=0;whiteSpace=wrap;html=1;" vertex="1" parent="1">
          <mxGeometry x="120" y="270" width="166" height="280" as="geometry" />
        </mxCell>
        <mxCell id="trE5b1TSk-sXv22cwQkJ-3" value="broker,controller Kafka1" style="rounded=0;whiteSpace=wrap;html=1;" vertex="1" parent="1">
          <mxGeometry x="130" y="310" width="120" height="60" as="geometry" />
        </mxCell>
        <mxCell id="trE5b1TSk-sXv22cwQkJ-4" value="broker,controller Kafka2" style="rounded=0;whiteSpace=wrap;html=1;" vertex="1" parent="1">
          <mxGeometry x="130" y="390" width="120" height="60" as="geometry" />
        </mxCell>
        <mxCell id="trE5b1TSk-sXv22cwQkJ-5" value="broker,controller Kafka3" style="rounded=0;whiteSpace=wrap;html=1;" vertex="1" parent="1">
          <mxGeometry x="338" y="466" width="120" height="60" as="geometry" />
        </mxCell>
        <mxCell id="trE5b1TSk-sXv22cwQkJ-7" value="node 1" style="text;html=1;align=center;verticalAlign=middle;resizable=0;points=[];autosize=1;strokeColor=none;fillColor=none;" vertex="1" parent="1">
          <mxGeometry x="165" y="555" width="60" height="30" as="geometry" />
        </mxCell>
        <mxCell id="trE5b1TSk-sXv22cwQkJ-9" value="node 2" style="text;html=1;align=center;verticalAlign=middle;resizable=0;points=[];autosize=1;strokeColor=none;fillColor=none;" vertex="1" parent="1">
          <mxGeometry x="368" y="555" width="60" height="30" as="geometry" />
        </mxCell>
        <mxCell id="trE5b1TSk-sXv22cwQkJ-10" value="Overlay Network" style="rounded=0;whiteSpace=wrap;html=1;" vertex="1" parent="1">
          <mxGeometry x="200" y="280" width="230" height="20" as="geometry" />
        </mxCell>
        <mxCell id="trE5b1TSk-sXv22cwQkJ-12" value="" style="shape=flexArrow;endArrow=classic;html=1;rounded=0;fillColor=#d5e8d4;strokeColor=#82b366;" edge="1" parent="1">
          <mxGeometry width="50" height="50" relative="1" as="geometry">
            <mxPoint x="234" y="496.5511111111111" as="sourcePoint" />
            <mxPoint x="334" y="495.44" as="targetPoint" />
          </mxGeometry>
        </mxCell>
      </root>
    </mxGraphModel>
  </diagram>
</mxfile>
